<svg id="svg" version="1.1" xmlns="http://www.w3.org/2000/svg" xmlns:xlink="http://www.w3.org/1999/xlink" width="400" height="400" viewBox="0, 0, 400,400"><g id="svgg"><path id="path0" d="M82.600 124.835 C 59.706 127.188,43.935 141.358,41.543 161.723 C 39.725 177.193,47.993 185.376,70.100 189.987 C 83.094 192.697,86.741 193.829,90.557 196.339 C 95.912 199.860,97.697 204.720,96.240 211.812 C 92.798 228.558,74.537 236.291,50.400 231.224 C 44.834 230.056,34.772 225.791,30.300 222.705 C 28.819 221.682,29.112 220.772,25.738 236.863 C 25.474 238.122,25.793 238.334,30.547 240.058 C 60.646 250.977,93.906 245.222,106.294 226.952 C 115.041 214.052,116.356 197.181,109.294 188.464 C 103.981 181.906,98.005 179.201,80.400 175.385 C 61.585 171.306,58.000 168.964,58.000 160.746 C 58.000 149.206,65.646 141.213,79.600 138.167 C 82.617 137.509,95.086 137.381,97.723 137.982 C 106.502 139.981,109.521 140.960,115.171 143.640 C 120.048 145.954,119.840 146.045,120.840 141.141 C 121.259 139.084,121.810 136.500,122.065 135.400 C 123.007 131.325,122.816 130.308,121.000 129.751 C 105.881 125.108,94.332 123.630,82.600 124.835 M175.200 153.844 C 167.835 154.265,150.140 158.487,148.904 160.116 C 148.702 160.382,148.218 162.220,147.828 164.200 C 146.715 169.852,146.475 170.954,146.201 171.660 C 145.750 172.824,146.647 172.819,149.255 171.643 C 167.007 163.633,188.244 164.206,194.238 172.855 C 196.555 176.198,197.390 181.382,196.344 185.916 L 195.887 187.894 181.244 188.117 C 151.360 188.572,138.622 194.554,132.088 211.200 C 124.078 231.605,132.921 245.390,154.000 245.357 C 166.728 245.338,175.059 242.035,183.733 233.572 C 186.069 231.293,187.717 230.593,186.638 232.339 C 186.436 232.665,185.085 238.851,184.505 242.100 L 184.309 243.200 191.331 243.200 C 195.266 243.200,198.455 243.035,198.584 242.825 C 198.712 242.619,199.195 240.684,199.658 238.525 C 200.121 236.366,200.658 233.880,200.851 233.000 C 201.044 232.120,201.381 230.500,201.600 229.400 C 201.819 228.300,202.159 226.680,202.356 225.800 C 202.665 224.418,203.171 222.037,204.821 214.200 C 205.006 213.320,205.720 209.990,206.406 206.800 C 207.092 203.610,208.301 197.850,209.092 194.000 C 215.013 165.168,204.060 152.190,175.200 153.844 M284.800 154.006 C 281.535 154.314,277.484 155.202,275.800 155.979 C 275.360 156.182,274.128 156.717,273.063 157.168 C 269.974 158.475,265.696 161.519,261.927 165.091 C 260.006 166.911,258.356 168.400,258.259 168.400 C 258.162 168.400,258.536 166.375,259.090 163.900 C 259.644 161.425,260.120 158.590,260.149 157.600 L 260.200 155.800 253.557 155.691 C 245.872 155.564,246.412 155.291,245.439 159.800 C 244.189 165.601,242.380 174.126,241.408 178.800 C 240.882 181.330,239.891 186.010,239.205 189.200 C 238.519 192.390,237.806 195.720,237.621 196.600 C 235.971 204.437,235.465 206.818,235.156 208.200 C 234.959 209.080,234.619 210.700,234.400 211.800 C 234.181 212.900,233.841 214.520,233.644 215.400 C 233.447 216.280,232.887 218.890,232.400 221.200 C 231.913 223.510,231.375 226.030,231.206 226.800 C 230.000 232.288,228.310 240.454,228.120 241.709 L 227.892 243.219 235.018 243.109 L 242.143 243.000 242.465 241.800 C 242.641 241.140,243.234 238.440,243.781 235.800 C 244.783 230.964,245.710 226.592,247.218 219.600 C 247.669 217.510,248.227 214.900,248.459 213.800 C 248.691 212.700,249.043 211.080,249.241 210.200 C 249.440 209.320,249.781 207.700,250.000 206.600 C 250.219 205.500,250.559 203.880,250.756 203.000 C 250.953 202.120,251.492 199.600,251.954 197.400 C 252.416 195.200,252.975 192.725,253.197 191.900 C 253.419 191.075,253.762 189.764,253.961 188.986 C 257.249 176.107,269.473 166.400,282.405 166.400 C 295.023 166.400,299.238 174.419,295.441 191.200 C 295.317 191.750,294.215 196.970,292.992 202.800 C 289.621 218.876,289.199 220.867,288.791 222.600 C 288.583 223.480,288.119 225.640,287.759 227.400 C 287.398 229.160,286.965 231.230,286.795 232.000 C 286.017 235.529,284.719 241.858,284.662 242.400 C 284.609 242.913,285.638 243.000,291.793 243.000 L 298.986 243.000 299.250 241.600 C 299.395 240.830,299.714 239.300,299.959 238.200 C 300.204 237.100,300.583 235.300,300.801 234.200 C 301.019 233.100,301.357 231.480,301.551 230.600 C 301.745 229.720,302.198 227.560,302.559 225.800 C 302.919 224.040,303.383 221.880,303.591 221.000 C 303.798 220.120,304.342 217.600,304.800 215.400 C 305.258 213.200,305.803 210.680,306.011 209.800 C 306.218 208.920,307.197 204.380,308.186 199.711 C 310.830 187.229,312.805 182.175,317.049 177.029 C 323.168 169.610,330.531 166.202,339.870 166.465 C 353.278 166.843,355.983 174.627,350.759 197.800 C 350.560 198.680,350.219 200.300,350.000 201.400 C 349.781 202.500,349.441 204.120,349.244 205.000 C 349.047 205.880,348.487 208.490,348.000 210.800 C 347.513 213.110,346.973 215.630,346.800 216.400 C 346.627 217.170,346.109 219.600,345.648 221.800 C 345.188 224.000,344.349 227.960,343.785 230.600 C 341.653 240.578,341.271 242.592,341.457 242.892 C 341.561 243.061,344.763 243.200,348.572 243.200 L 355.496 243.200 355.932 241.500 C 356.171 240.565,356.729 238.090,357.171 236.000 C 359.516 224.921,361.682 214.619,364.449 201.400 C 364.909 199.200,365.425 196.770,365.595 196.000 C 365.765 195.230,366.194 193.160,366.550 191.400 C 366.905 189.640,367.401 187.210,367.653 186.000 C 368.353 182.626,368.239 172.261,367.471 169.600 C 367.122 168.390,366.708 166.950,366.550 166.400 C 363.345 155.223,349.015 150.786,332.800 155.951 C 327.159 157.747,320.878 162.171,315.151 168.382 C 311.194 172.672,311.423 172.606,310.836 169.622 C 308.635 158.436,299.015 152.665,284.800 154.006 M192.926 199.427 C 193.967 199.827,191.751 208.083,189.122 213.600 C 186.006 220.137,176.431 230.400,173.447 230.400 C 173.306 230.400,172.428 230.754,171.496 231.187 C 158.384 237.276,144.427 232.027,144.414 221.000 C 144.400 210.034,150.608 203.145,162.800 200.596 C 167.413 199.632,191.067 198.714,192.926 199.427 " stroke="none" fill="#060606" fill-rule="evenodd"></path><path id="path1" d="M0.000 200.000 L 0.000 324.000 200.000 324.000 L 400.000 324.000 400.000 200.000 L 400.000 76.000 200.000 76.000 L 0.000 76.000 0.000 200.000 M97.800 124.822 C 104.898 125.434,111.527 126.842,121.000 129.751 C 122.816 130.308,123.007 131.325,122.065 135.400 C 121.810 136.500,121.259 139.084,120.840 141.141 C 119.840 146.045,120.048 145.954,115.171 143.640 C 109.521 140.960,106.502 139.981,97.723 137.982 C 95.086 137.381,82.617 137.509,79.600 138.167 C 65.646 141.213,58.000 149.206,58.000 160.746 C 58.000 168.964,61.585 171.306,80.400 175.385 C 98.005 179.201,103.981 181.906,109.294 188.464 C 117.668 198.800,114.054 220.152,101.921 232.023 C 87.211 246.415,57.341 249.778,30.547 240.058 C 25.793 238.334,25.474 238.122,25.738 236.863 C 29.112 220.772,28.819 221.682,30.300 222.705 C 43.155 231.577,62.445 234.975,77.400 231.002 C 95.276 226.253,103.420 204.797,90.557 196.339 C 86.741 193.829,83.094 192.697,70.100 189.987 C 47.993 185.376,39.725 177.193,41.543 161.723 C 44.492 136.619,66.578 122.131,97.800 124.822 M189.800 154.474 C 208.043 158.365,213.932 170.430,209.092 194.000 C 208.301 197.850,207.092 203.610,206.406 206.800 C 205.720 209.990,205.006 213.320,204.821 214.200 C 203.171 222.037,202.665 224.418,202.356 225.800 C 202.159 226.680,201.819 228.300,201.600 229.400 C 201.381 230.500,201.044 232.120,200.851 233.000 C 200.658 233.880,200.121 236.366,199.658 238.525 C 199.195 240.684,198.712 242.619,198.584 242.825 C 198.455 243.035,195.266 243.200,191.331 243.200 L 184.309 243.200 184.505 242.100 C 185.085 238.851,186.436 232.665,186.638 232.339 C 187.717 230.593,186.069 231.293,183.733 233.572 C 175.059 242.035,166.728 245.338,154.000 245.357 C 132.921 245.390,124.078 231.605,132.088 211.200 C 138.622 194.554,151.360 188.572,181.244 188.117 L 195.887 187.894 196.344 185.916 C 198.481 176.659,193.780 169.118,184.400 166.754 C 181.512 166.027,168.796 166.012,165.200 166.733 C 159.172 167.940,153.782 169.600,149.255 171.643 C 146.647 172.819,145.750 172.824,146.201 171.660 C 146.475 170.954,146.715 169.852,147.828 164.200 C 148.718 159.685,148.558 159.864,152.936 158.441 C 165.864 154.238,181.038 152.605,189.800 154.474 M296.600 154.596 C 303.841 156.456,309.400 162.323,310.836 169.622 C 311.423 172.606,311.194 172.672,315.151 168.382 C 332.484 149.587,361.409 148.472,366.550 166.400 C 366.708 166.950,367.122 168.390,367.471 169.600 C 368.239 172.261,368.353 182.626,367.653 186.000 C 367.401 187.210,366.905 189.640,366.550 191.400 C 366.194 193.160,365.765 195.230,365.595 196.000 C 365.425 196.770,364.909 199.200,364.449 201.400 C 361.682 214.619,359.516 224.921,357.171 236.000 C 356.729 238.090,356.171 240.565,355.932 241.500 L 355.496 243.200 348.572 243.200 C 344.763 243.200,341.561 243.061,341.457 242.892 C 341.271 242.592,341.653 240.578,343.785 230.600 C 344.349 227.960,345.188 224.000,345.648 221.800 C 346.109 219.600,346.627 217.170,346.800 216.400 C 346.973 215.630,347.513 213.110,348.000 210.800 C 348.487 208.490,349.047 205.880,349.244 205.000 C 349.441 204.120,349.781 202.500,350.000 201.400 C 350.219 200.300,350.560 198.680,350.759 197.800 C 355.983 174.627,353.278 166.843,339.870 166.465 C 330.531 166.202,323.168 169.610,317.049 177.029 C 312.805 182.175,310.830 187.229,308.186 199.711 C 307.197 204.380,306.218 208.920,306.011 209.800 C 305.803 210.680,305.258 213.200,304.800 215.400 C 304.342 217.600,303.798 220.120,303.591 221.000 C 303.383 221.880,302.919 224.040,302.559 225.800 C 302.198 227.560,301.745 229.720,301.551 230.600 C 301.357 231.480,301.019 233.100,300.801 234.200 C 300.583 235.300,300.204 237.100,299.959 238.200 C 299.714 239.300,299.395 240.830,299.250 241.600 L 298.986 243.000 291.793 243.000 C 285.638 243.000,284.609 242.913,284.662 242.400 C 284.719 241.858,286.017 235.529,286.795 232.000 C 286.965 231.230,287.398 229.160,287.759 227.400 C 288.119 225.640,288.583 223.480,288.791 222.600 C 289.199 220.867,289.621 218.876,292.992 202.800 C 294.215 196.970,295.317 191.750,295.441 191.200 C 299.238 174.419,295.023 166.400,282.405 166.400 C 269.473 166.400,257.249 176.107,253.961 188.986 C 253.762 189.764,253.419 191.075,253.197 191.900 C 252.975 192.725,252.416 195.200,251.954 197.400 C 251.492 199.600,250.953 202.120,250.756 203.000 C 250.559 203.880,250.219 205.500,250.000 206.600 C 249.781 207.700,249.440 209.320,249.241 210.200 C 249.043 211.080,248.691 212.700,248.459 213.800 C 248.227 214.900,247.669 217.510,247.218 219.600 C 245.710 226.592,244.783 230.964,243.781 235.800 C 243.234 238.440,242.641 241.140,242.465 241.800 L 242.143 243.000 235.018 243.109 L 227.892 243.219 228.120 241.709 C 228.310 240.454,230.000 232.288,231.206 226.800 C 231.375 226.030,231.913 223.510,232.400 221.200 C 232.887 218.890,233.447 216.280,233.644 215.400 C 233.841 214.520,234.181 212.900,234.400 211.800 C 234.619 210.700,234.959 209.080,235.156 208.200 C 235.465 206.818,235.971 204.437,237.621 196.600 C 237.806 195.720,238.519 192.390,239.205 189.200 C 239.891 186.010,240.882 181.330,241.408 178.800 C 242.380 174.126,244.189 165.601,245.439 159.800 C 246.412 155.291,245.872 155.564,253.557 155.691 L 260.200 155.800 260.149 157.600 C 260.120 158.590,259.644 161.425,259.090 163.900 C 258.536 166.375,258.162 168.400,258.259 168.400 C 258.356 168.400,260.006 166.911,261.927 165.091 C 265.696 161.519,269.974 158.475,273.063 157.168 C 274.128 156.717,275.360 156.182,275.800 155.979 C 280.350 153.880,291.043 153.169,296.600 154.596 M169.800 199.807 C 152.184 201.369,144.397 207.870,144.414 221.000 C 144.427 232.027,158.384 237.276,171.496 231.187 C 172.428 230.754,173.306 230.400,173.447 230.400 C 176.431 230.400,186.006 220.137,189.122 213.600 C 191.751 208.083,193.967 199.827,192.926 199.427 C 191.881 199.026,175.586 199.294,169.800 199.807 " stroke="none" fill="#fbfbfb" fill-rule="evenodd"></path></g></svg>